<svg xmlns="http://www.w3.org/2000/svg" viewBox="0 0 512 512" width="100%" height="100%">
  <defs>
    <radialGradient id="glow" cx="50%" cy="50%" r="50%">
      <stop offset="0%" stop-color="#115c32" stop-opacity="0.3"/>
      <stop offset="100%" stop-color="#0a2417" stop-opacity="0"/>
    </radialGradient>
  </defs>
  <circle cx="256" cy="256" r="240" fill="url(#glow)"/>

  <path d="M 160,240 C 120,180 130,100 180,80 C 200,72 220,85 215,105 C 205,140 210,190 240,210 C 210,225 180,240 160,240 Z" fill="#d4af37" stroke="#0a2417" stroke-width="4"/>
  <path d="M 352,240 C 392,180 382,100 332,80 C 312,72 292,85 297,105 C 307,140 302,190 272,210 C 302,225 332,240 352,240 Z" fill="#d4af37" stroke="#0a2417" stroke-width="4"/>

  <path d="M 280,40 L 140,280 L 250,280 L 200,480 L 380,200 L 270,200 Z" fill="#115c32" stroke="#d4af37" stroke-width="12" stroke-linejoin="round"/>
  <path d="M 280,50 L 155,270 L 260,270 L 215,450 L 360,190 L 255,190 Z" fill="#d4af37"/>
</svg>
